<?xml version="1.0" encoding="utf-8" standalone="no"?>
<!DOCTYPE svg PUBLIC "-//W3C//DTD SVG 1.1//EN"
  "http://www.w3.org/Graphics/SVG/1.1/DTD/svg11.dtd">
<svg xmlns:xlink="http://www.w3.org/1999/xlink" width="460.8pt" height="345.6pt" viewBox="0 0 460.8 345.6" xmlns="http://www.w3.org/2000/svg" version="1.1">
 <metadata>
  <rdf:RDF xmlns:dc="http://purl.org/dc/elements/1.1/" xmlns:cc="http://creativecommons.org/ns#" xmlns:rdf="http://www.w3.org/1999/02/22-rdf-syntax-ns#">
   <cc:Work>
    <dc:type rdf:resource="http://purl.org/dc/dcmitype/StillImage"/>
    <dc:date>2023-07-11T22:59:26.355582</dc:date>
    <dc:format>image/svg+xml</dc:format>
    <dc:creator>
     <cc:Agent>
      <dc:title>Matplotlib v3.7.1, https://matplotlib.org/</dc:title>
     </cc:Agent>
    </dc:creator>
   </cc:Work>
  </rdf:RDF>
 </metadata>
 <defs>
  <style type="text/css">*{stroke-linejoin: round; stroke-linecap: butt}</style>
 </defs>
 <g id="figure_1">
  <g id="patch_1">
   <path d="M 0 345.6 
L 460.8 345.6 
L 460.8 0 
L 0 0 
z
" style="fill: #ffffff"/>
  </g>
  <g id="axes_1">
   <g id="patch_2">
    <path d="M 57.6 307.584 
L 414.72 307.584 
L 414.72 41.472 
L 57.6 41.472 
z
" style="fill: #ffffff"/>
   </g>
   <g id="matplotlib.axis_1">
    <g id="xtick_1">
     <g id="line2d_1">
      <path d="M 73.832727 307.584 
L 73.832727 41.472 
" clip-path="url(#pc98d1d3f6b)" style="fill: none; stroke: #b0b0b0; stroke-width: 0.8; stroke-linecap: square"/>
     </g>
     <g id="line2d_2">
      <defs>
       <path id="mc3c74fb6d4" d="M 0 0 
L 0 3.5 
" style="stroke: #000000; stroke-width: 0.8"/>
      </defs>
      <g>
       <use xlink:href="#mc3c74fb6d4" x="73.832727" y="307.584" style="stroke: #000000; stroke-width: 0.8"/>
      </g>
     </g>
     <g id="text_1">
      <!-- 0 -->
      <g transform="translate(70.651477 322.182437) scale(0.1 -0.1)">
       <defs>
        <path id="DejaVuSans-30" d="M 2034 4250 
Q 1547 4250 1301 3770 
Q 1056 3291 1056 2328 
Q 1056 1369 1301 889 
Q 1547 409 2034 409 
Q 2525 409 2770 889 
Q 3016 1369 3016 2328 
Q 3016 3291 2770 3770 
Q 2525 4250 2034 4250 
z
M 2034 4750 
Q 2819 4750 3233 4129 
Q 3647 3509 3647 2328 
Q 3647 1150 3233 529 
Q 2819 -91 2034 -91 
Q 1250 -91 836 529 
Q 422 1150 422 2328 
Q 422 3509 836 4129 
Q 1250 4750 2034 4750 
z
" transform="scale(0.015625)"/>
       </defs>
       <use xlink:href="#DejaVuSans-30"/>
      </g>
     </g>
    </g>
    <g id="xtick_2">
     <g id="line2d_3">
      <path d="M 138.893758 307.584 
L 138.893758 41.472 
" clip-path="url(#pc98d1d3f6b)" style="fill: none; stroke: #b0b0b0; stroke-width: 0.8; stroke-linecap: square"/>
     </g>
     <g id="line2d_4">
      <g>
       <use xlink:href="#mc3c74fb6d4" x="138.893758" y="307.584" style="stroke: #000000; stroke-width: 0.8"/>
      </g>
     </g>
     <g id="text_2">
      <!-- 100 -->
      <g transform="translate(129.350008 322.182437) scale(0.1 -0.1)">
       <defs>
        <path id="DejaVuSans-31" d="M 794 531 
L 1825 531 
L 1825 4091 
L 703 3866 
L 703 4441 
L 1819 4666 
L 2450 4666 
L 2450 531 
L 3481 531 
L 3481 0 
L 794 0 
L 794 531 
z
" transform="scale(0.015625)"/>
       </defs>
       <use xlink:href="#DejaVuSans-31"/>
       <use xlink:href="#DejaVuSans-30" x="63.623047"/>
       <use xlink:href="#DejaVuSans-30" x="127.246094"/>
      </g>
     </g>
    </g>
    <g id="xtick_3">
     <g id="line2d_5">
      <path d="M 203.95479 307.584 
L 203.95479 41.472 
" clip-path="url(#pc98d1d3f6b)" style="fill: none; stroke: #b0b0b0; stroke-width: 0.8; stroke-linecap: square"/>
     </g>
     <g id="line2d_6">
      <g>
       <use xlink:href="#mc3c74fb6d4" x="203.95479" y="307.584" style="stroke: #000000; stroke-width: 0.8"/>
      </g>
     </g>
     <g id="text_3">
      <!-- 200 -->
      <g transform="translate(194.41104 322.182437) scale(0.1 -0.1)">
       <defs>
        <path id="DejaVuSans-32" d="M 1228 531 
L 3431 531 
L 3431 0 
L 469 0 
L 469 531 
Q 828 903 1448 1529 
Q 2069 2156 2228 2338 
Q 2531 2678 2651 2914 
Q 2772 3150 2772 3378 
Q 2772 3750 2511 3984 
Q 2250 4219 1831 4219 
Q 1534 4219 1204 4116 
Q 875 4013 500 3803 
L 500 4441 
Q 881 4594 1212 4672 
Q 1544 4750 1819 4750 
Q 2544 4750 2975 4387 
Q 3406 4025 3406 3419 
Q 3406 3131 3298 2873 
Q 3191 2616 2906 2266 
Q 2828 2175 2409 1742 
Q 1991 1309 1228 531 
z
" transform="scale(0.015625)"/>
       </defs>
       <use xlink:href="#DejaVuSans-32"/>
       <use xlink:href="#DejaVuSans-30" x="63.623047"/>
       <use xlink:href="#DejaVuSans-30" x="127.246094"/>
      </g>
     </g>
    </g>
    <g id="xtick_4">
     <g id="line2d_7">
      <path d="M 269.015821 307.584 
L 269.015821 41.472 
" clip-path="url(#pc98d1d3f6b)" style="fill: none; stroke: #b0b0b0; stroke-width: 0.8; stroke-linecap: square"/>
     </g>
     <g id="line2d_8">
      <g>
       <use xlink:href="#mc3c74fb6d4" x="269.015821" y="307.584" style="stroke: #000000; stroke-width: 0.8"/>
      </g>
     </g>
     <g id="text_4">
      <!-- 300 -->
      <g transform="translate(259.472071 322.182437) scale(0.1 -0.1)">
       <defs>
        <path id="DejaVuSans-33" d="M 2597 2516 
Q 3050 2419 3304 2112 
Q 3559 1806 3559 1356 
Q 3559 666 3084 287 
Q 2609 -91 1734 -91 
Q 1441 -91 1130 -33 
Q 819 25 488 141 
L 488 750 
Q 750 597 1062 519 
Q 1375 441 1716 441 
Q 2309 441 2620 675 
Q 2931 909 2931 1356 
Q 2931 1769 2642 2001 
Q 2353 2234 1838 2234 
L 1294 2234 
L 1294 2753 
L 1863 2753 
Q 2328 2753 2575 2939 
Q 2822 3125 2822 3475 
Q 2822 3834 2567 4026 
Q 2313 4219 1838 4219 
Q 1578 4219 1281 4162 
Q 984 4106 628 3988 
L 628 4550 
Q 988 4650 1302 4700 
Q 1616 4750 1894 4750 
Q 2613 4750 3031 4423 
Q 3450 4097 3450 3541 
Q 3450 3153 3228 2886 
Q 3006 2619 2597 2516 
z
" transform="scale(0.015625)"/>
       </defs>
       <use xlink:href="#DejaVuSans-33"/>
       <use xlink:href="#DejaVuSans-30" x="63.623047"/>
       <use xlink:href="#DejaVuSans-30" x="127.246094"/>
      </g>
     </g>
    </g>
    <g id="xtick_5">
     <g id="line2d_9">
      <path d="M 334.076852 307.584 
L 334.076852 41.472 
" clip-path="url(#pc98d1d3f6b)" style="fill: none; stroke: #b0b0b0; stroke-width: 0.8; stroke-linecap: square"/>
     </g>
     <g id="line2d_10">
      <g>
       <use xlink:href="#mc3c74fb6d4" x="334.076852" y="307.584" style="stroke: #000000; stroke-width: 0.8"/>
      </g>
     </g>
     <g id="text_5">
      <!-- 400 -->
      <g transform="translate(324.533102 322.182437) scale(0.1 -0.1)">
       <defs>
        <path id="DejaVuSans-34" d="M 2419 4116 
L 825 1625 
L 2419 1625 
L 2419 4116 
z
M 2253 4666 
L 3047 4666 
L 3047 1625 
L 3713 1625 
L 3713 1100 
L 3047 1100 
L 3047 0 
L 2419 0 
L 2419 1100 
L 313 1100 
L 313 1709 
L 2253 4666 
z
" transform="scale(0.015625)"/>
       </defs>
       <use xlink:href="#DejaVuSans-34"/>
       <use xlink:href="#DejaVuSans-30" x="63.623047"/>
       <use xlink:href="#DejaVuSans-30" x="127.246094"/>
      </g>
     </g>
    </g>
    <g id="xtick_6">
     <g id="line2d_11">
      <path d="M 399.137883 307.584 
L 399.137883 41.472 
" clip-path="url(#pc98d1d3f6b)" style="fill: none; stroke: #b0b0b0; stroke-width: 0.8; stroke-linecap: square"/>
     </g>
     <g id="line2d_12">
      <g>
       <use xlink:href="#mc3c74fb6d4" x="399.137883" y="307.584" style="stroke: #000000; stroke-width: 0.8"/>
      </g>
     </g>
     <g id="text_6">
      <!-- 500 -->
      <g transform="translate(389.594133 322.182437) scale(0.1 -0.1)">
       <defs>
        <path id="DejaVuSans-35" d="M 691 4666 
L 3169 4666 
L 3169 4134 
L 1269 4134 
L 1269 2991 
Q 1406 3038 1543 3061 
Q 1681 3084 1819 3084 
Q 2600 3084 3056 2656 
Q 3513 2228 3513 1497 
Q 3513 744 3044 326 
Q 2575 -91 1722 -91 
Q 1428 -91 1123 -41 
Q 819 9 494 109 
L 494 744 
Q 775 591 1075 516 
Q 1375 441 1709 441 
Q 2250 441 2565 725 
Q 2881 1009 2881 1497 
Q 2881 1984 2565 2268 
Q 2250 2553 1709 2553 
Q 1456 2553 1204 2497 
Q 953 2441 691 2322 
L 691 4666 
z
" transform="scale(0.015625)"/>
       </defs>
       <use xlink:href="#DejaVuSans-35"/>
       <use xlink:href="#DejaVuSans-30" x="63.623047"/>
       <use xlink:href="#DejaVuSans-30" x="127.246094"/>
      </g>
     </g>
    </g>
    <g id="text_7">
     <!-- Generations -->
     <g transform="translate(205.662344 335.860562) scale(0.1 -0.1)">
      <defs>
       <path id="DejaVuSans-47" d="M 3809 666 
L 3809 1919 
L 2778 1919 
L 2778 2438 
L 4434 2438 
L 4434 434 
Q 4069 175 3628 42 
Q 3188 -91 2688 -91 
Q 1594 -91 976 548 
Q 359 1188 359 2328 
Q 359 3472 976 4111 
Q 1594 4750 2688 4750 
Q 3144 4750 3555 4637 
Q 3966 4525 4313 4306 
L 4313 3634 
Q 3963 3931 3569 4081 
Q 3175 4231 2741 4231 
Q 1884 4231 1454 3753 
Q 1025 3275 1025 2328 
Q 1025 1384 1454 906 
Q 1884 428 2741 428 
Q 3075 428 3337 486 
Q 3600 544 3809 666 
z
" transform="scale(0.015625)"/>
       <path id="DejaVuSans-65" d="M 3597 1894 
L 3597 1613 
L 953 1613 
Q 991 1019 1311 708 
Q 1631 397 2203 397 
Q 2534 397 2845 478 
Q 3156 559 3463 722 
L 3463 178 
Q 3153 47 2828 -22 
Q 2503 -91 2169 -91 
Q 1331 -91 842 396 
Q 353 884 353 1716 
Q 353 2575 817 3079 
Q 1281 3584 2069 3584 
Q 2775 3584 3186 3129 
Q 3597 2675 3597 1894 
z
M 3022 2063 
Q 3016 2534 2758 2815 
Q 2500 3097 2075 3097 
Q 1594 3097 1305 2825 
Q 1016 2553 972 2059 
L 3022 2063 
z
" transform="scale(0.015625)"/>
       <path id="DejaVuSans-6e" d="M 3513 2113 
L 3513 0 
L 2938 0 
L 2938 2094 
Q 2938 2591 2744 2837 
Q 2550 3084 2163 3084 
Q 1697 3084 1428 2787 
Q 1159 2491 1159 1978 
L 1159 0 
L 581 0 
L 581 3500 
L 1159 3500 
L 1159 2956 
Q 1366 3272 1645 3428 
Q 1925 3584 2291 3584 
Q 2894 3584 3203 3211 
Q 3513 2838 3513 2113 
z
" transform="scale(0.015625)"/>
       <path id="DejaVuSans-72" d="M 2631 2963 
Q 2534 3019 2420 3045 
Q 2306 3072 2169 3072 
Q 1681 3072 1420 2755 
Q 1159 2438 1159 1844 
L 1159 0 
L 581 0 
L 581 3500 
L 1159 3500 
L 1159 2956 
Q 1341 3275 1631 3429 
Q 1922 3584 2338 3584 
Q 2397 3584 2469 3576 
Q 2541 3569 2628 3553 
L 2631 2963 
z
" transform="scale(0.015625)"/>
       <path id="DejaVuSans-61" d="M 2194 1759 
Q 1497 1759 1228 1600 
Q 959 1441 959 1056 
Q 959 750 1161 570 
Q 1363 391 1709 391 
Q 2188 391 2477 730 
Q 2766 1069 2766 1631 
L 2766 1759 
L 2194 1759 
z
M 3341 1997 
L 3341 0 
L 2766 0 
L 2766 531 
Q 2569 213 2275 61 
Q 1981 -91 1556 -91 
Q 1019 -91 701 211 
Q 384 513 384 1019 
Q 384 1609 779 1909 
Q 1175 2209 1959 2209 
L 2766 2209 
L 2766 2266 
Q 2766 2663 2505 2880 
Q 2244 3097 1772 3097 
Q 1472 3097 1187 3025 
Q 903 2953 641 2809 
L 641 3341 
Q 956 3463 1253 3523 
Q 1550 3584 1831 3584 
Q 2591 3584 2966 3190 
Q 3341 2797 3341 1997 
z
" transform="scale(0.015625)"/>
       <path id="DejaVuSans-74" d="M 1172 4494 
L 1172 3500 
L 2356 3500 
L 2356 3053 
L 1172 3053 
L 1172 1153 
Q 1172 725 1289 603 
Q 1406 481 1766 481 
L 2356 481 
L 2356 0 
L 1766 0 
Q 1100 0 847 248 
Q 594 497 594 1153 
L 594 3053 
L 172 3053 
L 172 3500 
L 594 3500 
L 594 4494 
L 1172 4494 
z
" transform="scale(0.015625)"/>
       <path id="DejaVuSans-69" d="M 603 3500 
L 1178 3500 
L 1178 0 
L 603 0 
L 603 3500 
z
M 603 4863 
L 1178 4863 
L 1178 4134 
L 603 4134 
L 603 4863 
z
" transform="scale(0.015625)"/>
       <path id="DejaVuSans-6f" d="M 1959 3097 
Q 1497 3097 1228 2736 
Q 959 2375 959 1747 
Q 959 1119 1226 758 
Q 1494 397 1959 397 
Q 2419 397 2687 759 
Q 2956 1122 2956 1747 
Q 2956 2369 2687 2733 
Q 2419 3097 1959 3097 
z
M 1959 3584 
Q 2709 3584 3137 3096 
Q 3566 2609 3566 1747 
Q 3566 888 3137 398 
Q 2709 -91 1959 -91 
Q 1206 -91 779 398 
Q 353 888 353 1747 
Q 353 2609 779 3096 
Q 1206 3584 1959 3584 
z
" transform="scale(0.015625)"/>
       <path id="DejaVuSans-73" d="M 2834 3397 
L 2834 2853 
Q 2591 2978 2328 3040 
Q 2066 3103 1784 3103 
Q 1356 3103 1142 2972 
Q 928 2841 928 2578 
Q 928 2378 1081 2264 
Q 1234 2150 1697 2047 
L 1894 2003 
Q 2506 1872 2764 1633 
Q 3022 1394 3022 966 
Q 3022 478 2636 193 
Q 2250 -91 1575 -91 
Q 1294 -91 989 -36 
Q 684 19 347 128 
L 347 722 
Q 666 556 975 473 
Q 1284 391 1588 391 
Q 1994 391 2212 530 
Q 2431 669 2431 922 
Q 2431 1156 2273 1281 
Q 2116 1406 1581 1522 
L 1381 1569 
Q 847 1681 609 1914 
Q 372 2147 372 2553 
Q 372 3047 722 3315 
Q 1072 3584 1716 3584 
Q 2034 3584 2315 3537 
Q 2597 3491 2834 3397 
z
" transform="scale(0.015625)"/>
      </defs>
      <use xlink:href="#DejaVuSans-47"/>
      <use xlink:href="#DejaVuSans-65" x="77.490234"/>
      <use xlink:href="#DejaVuSans-6e" x="139.013672"/>
      <use xlink:href="#DejaVuSans-65" x="202.392578"/>
      <use xlink:href="#DejaVuSans-72" x="263.916016"/>
      <use xlink:href="#DejaVuSans-61" x="305.029297"/>
      <use xlink:href="#DejaVuSans-74" x="366.308594"/>
      <use xlink:href="#DejaVuSans-69" x="405.517578"/>
      <use xlink:href="#DejaVuSans-6f" x="433.300781"/>
      <use xlink:href="#DejaVuSans-6e" x="494.482422"/>
      <use xlink:href="#DejaVuSans-73" x="557.861328"/>
     </g>
    </g>
   </g>
   <g id="matplotlib.axis_2">
    <g id="ytick_1">
     <g id="line2d_13">
      <path d="M 57.6 282.754671 
L 414.72 282.754671 
" clip-path="url(#pc98d1d3f6b)" style="fill: none; stroke: #b0b0b0; stroke-width: 0.8; stroke-linecap: square"/>
     </g>
     <g id="line2d_14">
      <defs>
       <path id="mdf072cdad6" d="M 0 0 
L -3.5 0 
" style="stroke: #000000; stroke-width: 0.8"/>
      </defs>
      <g>
       <use xlink:href="#mdf072cdad6" x="57.6" y="282.754671" style="stroke: #000000; stroke-width: 0.8"/>
      </g>
     </g>
     <g id="text_8">
      <!-- 0.3 -->
      <g transform="translate(34.696875 286.55389) scale(0.1 -0.1)">
       <defs>
        <path id="DejaVuSans-2e" d="M 684 794 
L 1344 794 
L 1344 0 
L 684 0 
L 684 794 
z
" transform="scale(0.015625)"/>
       </defs>
       <use xlink:href="#DejaVuSans-30"/>
       <use xlink:href="#DejaVuSans-2e" x="63.623047"/>
       <use xlink:href="#DejaVuSans-33" x="95.410156"/>
      </g>
     </g>
    </g>
    <g id="ytick_2">
     <g id="line2d_15">
      <path d="M 57.6 248.547705 
L 414.72 248.547705 
" clip-path="url(#pc98d1d3f6b)" style="fill: none; stroke: #b0b0b0; stroke-width: 0.8; stroke-linecap: square"/>
     </g>
     <g id="line2d_16">
      <g>
       <use xlink:href="#mdf072cdad6" x="57.6" y="248.547705" style="stroke: #000000; stroke-width: 0.8"/>
      </g>
     </g>
     <g id="text_9">
      <!-- 0.4 -->
      <g transform="translate(34.696875 252.346924) scale(0.1 -0.1)">
       <use xlink:href="#DejaVuSans-30"/>
       <use xlink:href="#DejaVuSans-2e" x="63.623047"/>
       <use xlink:href="#DejaVuSans-34" x="95.410156"/>
      </g>
     </g>
    </g>
    <g id="ytick_3">
     <g id="line2d_17">
      <path d="M 57.6 214.340739 
L 414.72 214.340739 
" clip-path="url(#pc98d1d3f6b)" style="fill: none; stroke: #b0b0b0; stroke-width: 0.8; stroke-linecap: square"/>
     </g>
     <g id="line2d_18">
      <g>
       <use xlink:href="#mdf072cdad6" x="57.6" y="214.340739" style="stroke: #000000; stroke-width: 0.8"/>
      </g>
     </g>
     <g id="text_10">
      <!-- 0.5 -->
      <g transform="translate(34.696875 218.139958) scale(0.1 -0.1)">
       <use xlink:href="#DejaVuSans-30"/>
       <use xlink:href="#DejaVuSans-2e" x="63.623047"/>
       <use xlink:href="#DejaVuSans-35" x="95.410156"/>
      </g>
     </g>
    </g>
    <g id="ytick_4">
     <g id="line2d_19">
      <path d="M 57.6 180.133774 
L 414.72 180.133774 
" clip-path="url(#pc98d1d3f6b)" style="fill: none; stroke: #b0b0b0; stroke-width: 0.8; stroke-linecap: square"/>
     </g>
     <g id="line2d_20">
      <g>
       <use xlink:href="#mdf072cdad6" x="57.6" y="180.133774" style="stroke: #000000; stroke-width: 0.8"/>
      </g>
     </g>
     <g id="text_11">
      <!-- 0.6 -->
      <g transform="translate(34.696875 183.932992) scale(0.1 -0.1)">
       <defs>
        <path id="DejaVuSans-36" d="M 2113 2584 
Q 1688 2584 1439 2293 
Q 1191 2003 1191 1497 
Q 1191 994 1439 701 
Q 1688 409 2113 409 
Q 2538 409 2786 701 
Q 3034 994 3034 1497 
Q 3034 2003 2786 2293 
Q 2538 2584 2113 2584 
z
M 3366 4563 
L 3366 3988 
Q 3128 4100 2886 4159 
Q 2644 4219 2406 4219 
Q 1781 4219 1451 3797 
Q 1122 3375 1075 2522 
Q 1259 2794 1537 2939 
Q 1816 3084 2150 3084 
Q 2853 3084 3261 2657 
Q 3669 2231 3669 1497 
Q 3669 778 3244 343 
Q 2819 -91 2113 -91 
Q 1303 -91 875 529 
Q 447 1150 447 2328 
Q 447 3434 972 4092 
Q 1497 4750 2381 4750 
Q 2619 4750 2861 4703 
Q 3103 4656 3366 4563 
z
" transform="scale(0.015625)"/>
       </defs>
       <use xlink:href="#DejaVuSans-30"/>
       <use xlink:href="#DejaVuSans-2e" x="63.623047"/>
       <use xlink:href="#DejaVuSans-36" x="95.410156"/>
      </g>
     </g>
    </g>
    <g id="ytick_5">
     <g id="line2d_21">
      <path d="M 57.6 145.926808 
L 414.72 145.926808 
" clip-path="url(#pc98d1d3f6b)" style="fill: none; stroke: #b0b0b0; stroke-width: 0.8; stroke-linecap: square"/>
     </g>
     <g id="line2d_22">
      <g>
       <use xlink:href="#mdf072cdad6" x="57.6" y="145.926808" style="stroke: #000000; stroke-width: 0.8"/>
      </g>
     </g>
     <g id="text_12">
      <!-- 0.7 -->
      <g transform="translate(34.696875 149.726027) scale(0.1 -0.1)">
       <defs>
        <path id="DejaVuSans-37" d="M 525 4666 
L 3525 4666 
L 3525 4397 
L 1831 0 
L 1172 0 
L 2766 4134 
L 525 4134 
L 525 4666 
z
" transform="scale(0.015625)"/>
       </defs>
       <use xlink:href="#DejaVuSans-30"/>
       <use xlink:href="#DejaVuSans-2e" x="63.623047"/>
       <use xlink:href="#DejaVuSans-37" x="95.410156"/>
      </g>
     </g>
    </g>
    <g id="ytick_6">
     <g id="line2d_23">
      <path d="M 57.6 111.719842 
L 414.72 111.719842 
" clip-path="url(#pc98d1d3f6b)" style="fill: none; stroke: #b0b0b0; stroke-width: 0.8; stroke-linecap: square"/>
     </g>
     <g id="line2d_24">
      <g>
       <use xlink:href="#mdf072cdad6" x="57.6" y="111.719842" style="stroke: #000000; stroke-width: 0.8"/>
      </g>
     </g>
     <g id="text_13">
      <!-- 0.8 -->
      <g transform="translate(34.696875 115.519061) scale(0.1 -0.1)">
       <defs>
        <path id="DejaVuSans-38" d="M 2034 2216 
Q 1584 2216 1326 1975 
Q 1069 1734 1069 1313 
Q 1069 891 1326 650 
Q 1584 409 2034 409 
Q 2484 409 2743 651 
Q 3003 894 3003 1313 
Q 3003 1734 2745 1975 
Q 2488 2216 2034 2216 
z
M 1403 2484 
Q 997 2584 770 2862 
Q 544 3141 544 3541 
Q 544 4100 942 4425 
Q 1341 4750 2034 4750 
Q 2731 4750 3128 4425 
Q 3525 4100 3525 3541 
Q 3525 3141 3298 2862 
Q 3072 2584 2669 2484 
Q 3125 2378 3379 2068 
Q 3634 1759 3634 1313 
Q 3634 634 3220 271 
Q 2806 -91 2034 -91 
Q 1263 -91 848 271 
Q 434 634 434 1313 
Q 434 1759 690 2068 
Q 947 2378 1403 2484 
z
M 1172 3481 
Q 1172 3119 1398 2916 
Q 1625 2713 2034 2713 
Q 2441 2713 2670 2916 
Q 2900 3119 2900 3481 
Q 2900 3844 2670 4047 
Q 2441 4250 2034 4250 
Q 1625 4250 1398 4047 
Q 1172 3844 1172 3481 
z
" transform="scale(0.015625)"/>
       </defs>
       <use xlink:href="#DejaVuSans-30"/>
       <use xlink:href="#DejaVuSans-2e" x="63.623047"/>
       <use xlink:href="#DejaVuSans-38" x="95.410156"/>
      </g>
     </g>
    </g>
    <g id="ytick_7">
     <g id="line2d_25">
      <path d="M 57.6 77.512876 
L 414.72 77.512876 
" clip-path="url(#pc98d1d3f6b)" style="fill: none; stroke: #b0b0b0; stroke-width: 0.8; stroke-linecap: square"/>
     </g>
     <g id="line2d_26">
      <g>
       <use xlink:href="#mdf072cdad6" x="57.6" y="77.512876" style="stroke: #000000; stroke-width: 0.8"/>
      </g>
     </g>
     <g id="text_14">
      <!-- 0.9 -->
      <g transform="translate(34.696875 81.312095) scale(0.1 -0.1)">
       <defs>
        <path id="DejaVuSans-39" d="M 703 97 
L 703 672 
Q 941 559 1184 500 
Q 1428 441 1663 441 
Q 2288 441 2617 861 
Q 2947 1281 2994 2138 
Q 2813 1869 2534 1725 
Q 2256 1581 1919 1581 
Q 1219 1581 811 2004 
Q 403 2428 403 3163 
Q 403 3881 828 4315 
Q 1253 4750 1959 4750 
Q 2769 4750 3195 4129 
Q 3622 3509 3622 2328 
Q 3622 1225 3098 567 
Q 2575 -91 1691 -91 
Q 1453 -91 1209 -44 
Q 966 3 703 97 
z
M 1959 2075 
Q 2384 2075 2632 2365 
Q 2881 2656 2881 3163 
Q 2881 3666 2632 3958 
Q 2384 4250 1959 4250 
Q 1534 4250 1286 3958 
Q 1038 3666 1038 3163 
Q 1038 2656 1286 2365 
Q 1534 2075 1959 2075 
z
" transform="scale(0.015625)"/>
       </defs>
       <use xlink:href="#DejaVuSans-30"/>
       <use xlink:href="#DejaVuSans-2e" x="63.623047"/>
       <use xlink:href="#DejaVuSans-39" x="95.410156"/>
      </g>
     </g>
    </g>
    <g id="ytick_8">
     <g id="line2d_27">
      <path d="M 57.6 43.30591 
L 414.72 43.30591 
" clip-path="url(#pc98d1d3f6b)" style="fill: none; stroke: #b0b0b0; stroke-width: 0.8; stroke-linecap: square"/>
     </g>
     <g id="line2d_28">
      <g>
       <use xlink:href="#mdf072cdad6" x="57.6" y="43.30591" style="stroke: #000000; stroke-width: 0.8"/>
      </g>
     </g>
     <g id="text_15">
      <!-- 1.0 -->
      <g transform="translate(34.696875 47.105129) scale(0.1 -0.1)">
       <use xlink:href="#DejaVuSans-31"/>
       <use xlink:href="#DejaVuSans-2e" x="63.623047"/>
       <use xlink:href="#DejaVuSans-30" x="95.410156"/>
      </g>
     </g>
    </g>
    <g id="text_16">
     <!-- Fitness -->
     <g transform="translate(28.617187 191.845187) rotate(-90) scale(0.1 -0.1)">
      <defs>
       <path id="DejaVuSans-46" d="M 628 4666 
L 3309 4666 
L 3309 4134 
L 1259 4134 
L 1259 2759 
L 3109 2759 
L 3109 2228 
L 1259 2228 
L 1259 0 
L 628 0 
L 628 4666 
z
" transform="scale(0.015625)"/>
      </defs>
      <use xlink:href="#DejaVuSans-46"/>
      <use xlink:href="#DejaVuSans-69" x="50.269531"/>
      <use xlink:href="#DejaVuSans-74" x="78.052734"/>
      <use xlink:href="#DejaVuSans-6e" x="117.261719"/>
      <use xlink:href="#DejaVuSans-65" x="180.640625"/>
      <use xlink:href="#DejaVuSans-73" x="242.164062"/>
      <use xlink:href="#DejaVuSans-73" x="294.263672"/>
     </g>
    </g>
   </g>
   <g id="line2d_29">
    <path d="M 73.832727 217.761436 
L 130.435824 217.761436 
L 131.086435 217.144589 
L 131.737045 217.450464 
L 133.038266 217.694364 
L 138.893758 217.629871 
L 140.194979 217.567812 
L 325.618918 217.567812 
L 326.269528 217.694364 
L 326.920138 217.567812 
L 327.570749 217.629871 
L 328.221359 217.567812 
L 328.871969 217.694364 
L 329.52258 217.567812 
L 330.17319 217.629871 
L 330.8238 217.567812 
L 331.474411 217.629871 
L 332.125021 217.567812 
L 332.775631 217.629871 
L 333.426242 217.567812 
L 334.076852 217.629871 
L 334.727462 217.567812 
L 336.028683 217.629871 
L 336.679293 217.567812 
L 337.980514 217.629871 
L 338.631124 217.567812 
L 339.281734 217.629871 
L 339.932345 217.567812 
L 340.582955 217.629871 
L 341.233565 217.567812 
L 341.884176 217.629871 
L 342.534786 217.508051 
L 343.836007 217.567812 
L 398.487273 217.567812 
L 398.487273 217.567812 
" clip-path="url(#pc98d1d3f6b)" style="fill: none; stroke: #0000ff; stroke-width: 1.5; stroke-linecap: square"/>
   </g>
   <g id="line2d_30">
    <path d="M 73.832727 260.840489 
L 74.483338 264.167065 
L 75.133948 259.139141 
L 75.784558 265.855992 
L 76.435169 265.870588 
L 77.736389 271.700084 
L 78.386999 265.846259 
L 79.03761 275.953508 
L 79.68822 279.538875 
L 80.33883 275.123162 
L 80.989441 276.426133 
L 81.640051 276.684858 
L 82.290661 276.370258 
L 82.941272 282.567162 
L 83.591882 279.314968 
L 84.242492 277.560065 
L 84.893103 278.576765 
L 85.543713 278.229445 
L 86.194323 276.082056 
L 86.844934 280.798851 
L 87.495544 277.922922 
L 88.146154 276.218328 
L 88.796764 277.965696 
L 89.447375 283.396038 
L 90.097985 285.522318 
L 90.748595 284.474667 
L 91.399206 282.295758 
L 92.049816 279.542663 
L 92.700426 287.520167 
L 93.351037 282.295758 
L 94.001647 283.949926 
L 94.652257 283.971137 
L 95.302868 282.121458 
L 95.953478 283.662911 
L 96.604088 286.397353 
L 97.254698 279.044435 
L 97.905309 281.401103 
L 98.555919 278.434219 
L 99.206529 282.93805 
L 99.85714 282.512973 
L 100.50775 290.131606 
L 101.15836 288.770351 
L 101.808971 278.883838 
L 102.459581 288.221143 
L 103.110191 280.958285 
L 103.760802 289.354581 
L 104.411412 285.158708 
L 105.062022 284.50623 
L 105.712633 284.172302 
L 106.363243 280.025631 
L 107.013853 287.136671 
L 108.315074 280.81741 
L 109.616294 284.105315 
L 110.266905 288.931657 
L 110.917515 284.838496 
L 111.568125 287.721163 
L 112.218736 285.612054 
L 112.869346 284.65333 
L 113.519956 276.799924 
L 114.170567 286.957655 
L 114.821177 294.558931 
L 115.471787 287.072549 
L 116.122398 284.330688 
L 116.773008 287.791375 
L 117.423618 285.089226 
L 118.074228 287.694397 
L 118.724839 284.635836 
L 119.375449 284.761697 
L 120.026059 289.344774 
L 120.67667 288.171305 
L 121.32728 288.410208 
L 121.97789 286.540408 
L 122.628501 292.467445 
L 123.279111 288.31408 
L 123.929721 290.096027 
L 124.580332 290.916373 
L 125.230942 282.837435 
L 125.881552 292.53633 
L 126.532163 289.830245 
L 127.182773 290.328594 
L 127.833383 285.037068 
L 128.483993 289.328426 
L 129.134604 286.212985 
L 129.785214 287.493324 
L 130.435824 291.340612 
L 131.086435 265.965427 
L 131.737045 267.956617 
L 132.387655 271.064143 
L 133.038266 273.16698 
L 133.688876 274.015205 
L 134.339486 274.276936 
L 134.990097 275.108765 
L 135.640707 273.853076 
L 137.592538 274.705103 
L 138.243148 275.205932 
L 138.893758 275.999033 
L 139.544369 276.093208 
L 140.194979 277.839828 
L 140.845589 281.322043 
L 142.14681 282.39783 
L 142.79742 285.2188 
L 143.448031 286.024352 
L 144.098641 284.740777 
L 144.749251 281.687752 
L 145.399862 282.775587 
L 146.050472 282.358417 
L 146.701082 282.645886 
L 147.351692 282.67909 
L 148.002303 281.189379 
L 148.652913 282.488692 
L 149.303523 280.721305 
L 149.954134 281.173935 
L 150.604744 281.935491 
L 151.255354 280.733749 
L 151.905965 280.158763 
L 152.556575 280.792825 
L 153.207185 279.724032 
L 153.857796 280.830107 
L 154.508406 280.917015 
L 155.159016 281.429822 
L 155.809627 278.678351 
L 156.460237 276.591334 
L 157.110847 276.022661 
L 157.761457 276.548041 
L 158.412068 277.604645 
L 159.062678 275.972218 
L 159.713288 278.407664 
L 160.363899 276.234047 
L 161.014509 276.029383 
L 161.665119 276.996086 
L 162.31573 274.868387 
L 162.96634 278.310698 
L 163.61695 277.460467 
L 164.267561 277.843088 
L 164.918171 277.417802 
L 165.568781 277.706017 
L 166.219392 276.244094 
L 166.870002 276.421309 
L 167.520612 276.019299 
L 168.171222 276.936542 
L 168.821833 278.433495 
L 169.472443 275.783512 
L 170.123053 277.200728 
L 170.773664 276.474703 
L 171.424274 276.774147 
L 172.074884 279.606956 
L 172.725495 278.491576 
L 173.376105 276.96963 
L 174.026715 278.597915 
L 174.677326 275.881311 
L 175.327936 277.091893 
L 175.978546 276.391253 
L 176.629156 276.770828 
L 177.279767 274.6244 
L 177.930377 275.773385 
L 178.580987 276.136837 
L 179.231598 276.717701 
L 179.882208 277.790907 
L 181.183429 271.410365 
L 181.834039 275.213687 
L 182.484649 274.717306 
L 183.13526 276.474703 
L 183.78587 272.786823 
L 184.43648 273.893075 
L 185.087091 273.693878 
L 185.737701 274.112423 
L 186.388311 276.046186 
L 187.689532 278.135767 
L 188.990752 278.067602 
L 189.641363 277.624278 
L 190.291973 279.126851 
L 190.942583 274.744805 
L 191.593194 275.516256 
L 192.243804 279.168332 
L 192.894414 276.381232 
L 193.545025 276.890189 
L 194.195635 279.508695 
L 194.846245 279.603789 
L 195.496856 279.492832 
L 196.147466 281.028578 
L 196.798076 281.565058 
L 197.448686 280.910811 
L 198.099297 281.549704 
L 198.749907 281.537419 
L 199.400517 281.109029 
L 200.051128 281.859131 
L 201.352348 285.615549 
L 202.002959 285.857672 
L 202.653569 285.66462 
L 203.304179 286.29363 
L 203.95479 288.202691 
L 204.6054 288.333314 
L 205.25601 287.700184 
L 205.906621 288.836871 
L 206.557231 288.685073 
L 207.207841 289.705554 
L 207.858451 290.177952 
L 208.509062 287.890442 
L 209.159672 286.078866 
L 209.810282 288.09969 
L 210.460893 288.532951 
L 211.111503 289.923131 
L 211.762113 291.971593 
L 212.412724 290.045232 
L 213.063334 289.980137 
L 213.713944 290.542361 
L 214.364555 289.484585 
L 215.015165 290.269901 
L 216.316385 291.343053 
L 216.966996 290.407608 
L 217.617606 286.833411 
L 218.268216 289.212414 
L 218.918827 285.969794 
L 219.569437 288.004908 
L 220.220047 286.021481 
L 220.870658 290.71717 
L 221.521268 290.845992 
L 222.171878 287.893236 
L 222.822489 290.364434 
L 223.473099 292.024392 
L 224.123709 289.836179 
L 224.77432 291.470784 
L 225.42493 291.094943 
L 226.07554 290.4157 
L 226.72615 289.503708 
L 227.376761 288.0774 
L 228.027371 288.088546 
L 228.677981 290.110268 
L 229.328592 289.476388 
L 229.979202 289.601974 
L 230.629812 290.92907 
L 231.280423 289.708277 
L 231.931033 291.468125 
L 232.581643 290.886203 
L 233.232254 288.737549 
L 233.882864 290.402212 
L 234.533474 290.601574 
L 235.184085 291.151041 
L 235.834695 290.536976 
L 237.786526 290.026252 
L 239.087746 290.142764 
L 239.738357 290.096724 
L 240.388967 291.661968 
L 241.039577 289.112042 
L 241.690188 290.426488 
L 242.340798 288.712697 
L 242.991408 286.256452 
L 243.642019 286.179173 
L 244.292629 285.929566 
L 244.943239 286.652931 
L 245.59385 286.3565 
L 246.24446 285.236224 
L 246.89507 286.345074 
L 247.54568 284.194479 
L 248.196291 285.854794 
L 248.846901 285.111249 
L 249.497511 285.874933 
L 250.148122 285.690584 
L 250.798732 284.886876 
L 251.449342 287.517836 
L 252.099953 284.983127 
L 252.750563 287.736597 
L 253.401173 287.786983 
L 254.051784 289.610157 
L 254.702394 287.565573 
L 255.353004 289.18067 
L 256.003615 287.261747 
L 256.654225 287.453199 
L 257.304835 286.222116 
L 257.955445 286.084601 
L 258.606056 288.933302 
L 259.256666 289.356057 
L 259.907276 288.213817 
L 260.557887 288.649146 
L 261.208497 288.088546 
L 261.859107 286.689895 
L 262.509718 284.529836 
L 263.160328 286.755246 
L 263.810938 285.302977 
L 264.461549 287.739397 
L 265.112159 282.808725 
L 265.762769 284.875199 
L 266.413379 286.413605 
L 267.06399 291.276439 
L 267.7146 287.951886 
L 268.36521 291.707036 
L 269.015821 285.851917 
L 269.666431 295.015009 
L 270.317041 285.981284 
L 270.967652 286.496323 
L 271.618262 291.860594 
L 272.268872 285.093861 
L 272.919483 281.822445 
L 273.570093 288.784468 
L 274.220703 279.821953 
L 274.871314 280.108514 
L 275.521924 278.739412 
L 276.172534 278.890195 
L 276.823144 290.504655 
L 277.473755 280.944924 
L 278.124365 290.854036 
L 278.774975 281.491328 
L 279.425586 278.82825 
L 280.076196 279.298975 
L 280.726806 281.048658 
L 281.377417 280.630656 
L 282.028027 288.650036 
L 282.678637 282.097078 
L 283.329248 280.442145 
L 283.979858 290.466465 
L 284.630468 280.618548 
L 285.281079 287.233548 
L 285.931689 282.118389 
L 286.582299 290.915676 
L 287.232909 284.439241 
L 287.88352 292.830203 
L 288.53413 286.972619 
L 289.18474 286.05018 
L 289.835351 288.792745 
L 290.485961 286.990563 
L 291.136571 288.477552 
L 291.787182 285.401535 
L 292.437792 286.541919 
L 293.088402 285.77706 
L 293.739013 286.709791 
L 294.389623 285.857672 
L 295.040233 288.580005 
L 295.690844 295.488 
L 296.341454 287.820554 
L 296.992064 288.734788 
L 297.642674 287.644127 
L 298.293285 289.982851 
L 298.943895 288.216599 
L 299.594505 290.744027 
L 300.245116 284.670537 
L 300.895726 286.59887 
L 301.546336 285.093792 
L 302.196947 287.120637 
L 302.847557 285.851917 
L 303.498167 285.061776 
L 304.148778 285.857672 
L 304.799388 285.186843 
L 305.449998 284.212172 
L 306.100608 285.410224 
L 306.751219 284.609017 
L 307.401829 285.146149 
L 308.052439 282.075759 
L 308.70305 283.160155 
L 309.35366 282.766546 
L 310.00427 289.59379 
L 310.654881 281.118306 
L 311.305491 291.220436 
L 311.956101 279.727193 
L 312.606712 286.633019 
L 313.257322 276.597991 
L 313.907932 287.405864 
L 314.558543 275.584032 
L 315.209153 285.654543 
L 315.859763 272.048865 
L 316.510373 288.197468 
L 317.160984 286.256452 
L 317.811594 287.058458 
L 318.462204 273.353259 
L 319.112815 286.348318 
L 319.763425 286.373637 
L 320.414035 284.21512 
L 321.064646 286.499174 
L 321.715256 284.851841 
L 322.365866 268.696173 
L 323.016477 285.853049 
L 323.667087 283.801084 
L 324.317697 267.659561 
L 324.968308 282.939566 
L 325.618918 267.071642 
L 326.269528 285.466797 
L 326.920138 265.086951 
L 327.570749 284.615938 
L 328.221359 268.02694 
L 328.871969 284.68789 
L 329.52258 264.788294 
L 330.17319 283.705967 
L 330.8238 267.675249 
L 331.474411 283.947964 
L 332.125021 274.517542 
L 332.775631 285.642309 
L 333.426242 274.984858 
L 334.076852 287.116045 
L 334.727462 276.244094 
L 335.378073 278.106695 
L 336.028683 288.647107 
L 336.679293 274.583059 
L 337.329903 275.046722 
L 337.980514 288.232837 
L 338.631124 277.2633 
L 339.281734 291.695742 
L 339.932345 277.312653 
L 340.582955 289.642031 
L 341.233565 279.184279 
L 341.884176 292.727855 
L 342.534786 277.138061 
L 343.185396 285.311679 
L 343.836007 278.652623 
L 344.486617 287.458822 
L 345.137227 279.082148 
L 345.787837 286.281681 
L 346.438448 277.204022 
L 347.089058 284.72615 
L 347.739668 278.520596 
L 348.390279 288.878215 
L 349.040889 278.252443 
L 349.691499 286.513425 
L 350.34211 278.323635 
L 350.99272 279.096226 
L 351.64333 282.157616 
L 352.293941 282.202738 
L 352.944551 287.837333 
L 353.595161 279.686086 
L 354.245772 281.932439 
L 354.896382 279.248024 
L 355.546992 285.169406 
L 356.197602 278.090332 
L 356.848213 286.366481 
L 357.498823 277.015921 
L 358.149433 284.173452 
L 358.800044 277.476868 
L 359.450654 282.971414 
L 360.101264 278.549602 
L 360.751875 284.49159 
L 361.402485 277.617735 
L 362.053095 281.522562 
L 362.703706 273.00346 
L 363.354316 283.841218 
L 364.004926 275.390661 
L 364.655537 283.073221 
L 365.306147 274.455404 
L 365.956757 281.892694 
L 366.607367 275.451796 
L 367.257978 281.313825 
L 367.908588 274.431221 
L 368.559198 281.441105 
L 369.209809 276.644574 
L 369.860419 282.923636 
L 370.511029 276.770828 
L 371.16164 283.775199 
L 371.81225 274.386282 
L 372.46286 282.044673 
L 373.113471 274.278976 
L 373.764081 283.538881 
L 374.414691 278.410893 
L 375.065302 283.050964 
L 375.715912 276.230698 
L 376.366522 282.575401 
L 377.017132 276.91337 
L 377.667743 283.919725 
L 378.318353 276.697766 
L 378.968963 283.595675 
L 379.619574 281.678558 
L 380.270184 284.357658 
L 380.920794 280.917015 
L 381.571405 286.239241 
L 382.222015 278.459316 
L 382.872625 284.042011 
L 383.523236 276.032744 
L 384.173846 277.418198 
L 384.824456 281.323625 
L 386.125677 277.4808 
L 387.426897 281.899168 
L 388.077508 280.070801 
L 388.728118 283.440955 
L 389.378728 280.512502 
L 390.029339 282.337915 
L 390.679949 277.088592 
L 391.330559 283.888333 
L 391.98117 277.306075 
L 392.63178 286.117841 
L 393.28239 279.219347 
L 393.933001 283.885193 
L 394.583611 277.440779 
L 395.234221 282.84393 
L 395.884831 276.979552 
L 396.535442 283.292208 
L 397.186052 275.651729 
L 397.836662 284.060804 
L 398.487273 278.229774 
L 398.487273 278.229774 
" clip-path="url(#pc98d1d3f6b)" style="fill: none; stroke-dasharray: 9.6,2.4,1.5,2.4; stroke-dashoffset: 0; stroke: #008000; stroke-width: 1.5"/>
   </g>
   <g id="line2d_31">
    <path d="M 73.832727 174.682383 
L 74.483338 171.355807 
L 75.133948 176.383731 
L 75.784558 169.66688 
L 76.435169 169.652284 
L 77.736389 163.822789 
L 78.386999 169.676613 
L 79.03761 159.569365 
L 79.68822 155.983997 
L 80.33883 160.39971 
L 80.989441 159.096739 
L 81.640051 158.838014 
L 82.290661 159.152614 
L 82.941272 152.95571 
L 83.591882 156.207904 
L 84.242492 157.962807 
L 84.893103 156.946107 
L 85.543713 157.293427 
L 86.194323 159.440816 
L 86.844934 154.724021 
L 87.495544 157.59995 
L 88.146154 159.304544 
L 88.796764 157.557176 
L 89.447375 152.126834 
L 90.097985 150.000554 
L 90.748595 151.048205 
L 91.399206 153.227114 
L 92.049816 155.980209 
L 92.700426 148.002705 
L 93.351037 153.227114 
L 94.001647 151.572946 
L 94.652257 151.551735 
L 95.302868 153.401414 
L 95.953478 151.859961 
L 96.604088 149.125519 
L 97.254698 156.478437 
L 97.905309 154.121769 
L 98.555919 157.088653 
L 99.206529 152.584822 
L 99.85714 153.009899 
L 100.50775 145.391266 
L 101.15836 146.752521 
L 101.808971 156.639034 
L 102.459581 147.301729 
L 103.110191 154.564587 
L 103.760802 146.168291 
L 104.411412 150.364164 
L 105.062022 151.016642 
L 105.712633 151.35057 
L 106.363243 155.497241 
L 107.013853 148.386201 
L 108.315074 154.705462 
L 109.616294 151.417557 
L 110.266905 146.591215 
L 110.917515 150.684376 
L 111.568125 147.801709 
L 112.218736 149.910818 
L 112.869346 150.869542 
L 113.519956 158.722948 
L 114.170567 148.565217 
L 114.821177 140.963941 
L 115.471787 148.450323 
L 116.122398 151.192184 
L 116.773008 147.731497 
L 117.423618 150.433646 
L 118.074228 147.828475 
L 118.724839 150.887037 
L 119.375449 150.761175 
L 120.026059 146.178098 
L 120.67667 147.351567 
L 121.32728 147.112664 
L 121.97789 148.982464 
L 122.628501 143.055427 
L 123.279111 147.208792 
L 123.929721 145.426845 
L 124.580332 144.606499 
L 125.230942 152.685437 
L 125.881552 142.986542 
L 126.532163 145.692627 
L 127.182773 145.194278 
L 127.833383 150.485804 
L 128.483993 146.194446 
L 129.134604 149.309887 
L 129.785214 148.029548 
L 130.435824 144.18226 
L 131.086435 168.323751 
L 131.737045 166.94431 
L 132.387655 164.195599 
L 133.038266 162.221747 
L 133.688876 161.373523 
L 134.339486 161.111791 
L 134.990097 160.279962 
L 135.640707 161.406665 
L 137.592538 160.554639 
L 138.243148 160.05381 
L 138.893758 159.260709 
L 139.544369 159.042415 
L 140.194979 157.295795 
L 140.845589 153.81358 
L 142.14681 152.737793 
L 142.79742 149.916824 
L 143.448031 149.111272 
L 144.098641 150.394846 
L 144.749251 153.447871 
L 145.399862 152.360037 
L 146.050472 152.777206 
L 146.701082 152.489737 
L 147.351692 152.456534 
L 148.002303 153.946244 
L 148.652913 152.646931 
L 149.303523 154.414318 
L 149.954134 153.961688 
L 150.604744 153.200132 
L 151.255354 154.401874 
L 151.905965 154.976861 
L 152.556575 154.342799 
L 153.207185 155.411591 
L 153.857796 154.305516 
L 154.508406 154.218609 
L 155.159016 153.705801 
L 155.809627 156.457272 
L 156.460237 158.54429 
L 157.110847 159.112962 
L 157.761457 158.587583 
L 158.412068 157.530979 
L 159.062678 159.163405 
L 159.713288 156.72796 
L 160.363899 158.901576 
L 161.014509 159.10624 
L 161.665119 158.139537 
L 162.31573 160.267237 
L 162.96634 156.824926 
L 163.61695 157.675156 
L 164.267561 157.292535 
L 164.918171 157.717821 
L 165.568781 157.429606 
L 166.219392 158.891529 
L 166.870002 158.714314 
L 167.520612 159.116324 
L 168.171222 158.199081 
L 168.821833 156.702128 
L 169.472443 159.352111 
L 170.123053 157.934896 
L 170.773664 158.66092 
L 171.424274 158.361477 
L 172.074884 155.528667 
L 172.725495 156.644047 
L 173.376105 158.165994 
L 174.026715 156.537709 
L 174.677326 159.254312 
L 175.327936 158.04373 
L 175.978546 158.74437 
L 176.629156 158.364795 
L 177.279767 160.511224 
L 177.930377 159.362238 
L 178.580987 158.998786 
L 179.231598 158.417922 
L 179.882208 157.344716 
L 181.183429 163.725259 
L 181.834039 159.921936 
L 182.484649 160.418317 
L 183.13526 158.66092 
L 183.78587 162.3488 
L 184.43648 161.242549 
L 185.087091 161.441745 
L 185.737701 161.023201 
L 186.388311 159.089437 
L 187.689532 156.999856 
L 188.990752 157.068021 
L 189.641363 157.511345 
L 190.291973 156.008772 
L 190.942583 160.390818 
L 191.593194 159.619367 
L 192.243804 155.967291 
L 192.894414 158.754392 
L 193.545025 158.245434 
L 194.195635 155.626928 
L 194.846245 155.531834 
L 195.496856 155.642791 
L 196.147466 154.107046 
L 196.798076 153.570566 
L 197.448686 154.224812 
L 198.099297 153.585919 
L 198.749907 153.598204 
L 199.400517 154.026594 
L 200.051128 153.276493 
L 201.352348 149.520074 
L 202.002959 149.277952 
L 202.653569 149.471004 
L 203.304179 148.841993 
L 203.95479 146.932932 
L 204.6054 146.802309 
L 205.25601 147.435439 
L 205.906621 146.298752 
L 206.557231 146.45055 
L 207.207841 145.43007 
L 207.858451 144.957671 
L 208.509062 147.245181 
L 209.159672 149.056758 
L 209.810282 147.035933 
L 210.460893 146.602673 
L 211.111503 145.212492 
L 211.762113 143.16403 
L 212.412724 145.090392 
L 213.063334 145.155486 
L 213.713944 144.593262 
L 214.364555 145.651038 
L 215.015165 144.865722 
L 216.316385 143.79257 
L 216.966996 144.728016 
L 217.617606 148.182691 
L 218.268216 145.803688 
L 218.918827 149.165829 
L 219.569437 147.130715 
L 220.220047 149.114142 
L 220.870658 144.418453 
L 221.521268 144.289631 
L 222.171878 147.242387 
L 222.822489 144.77119 
L 223.473099 143.111232 
L 224.123709 145.299445 
L 224.77432 143.664839 
L 225.42493 144.040681 
L 226.07554 144.719923 
L 226.72615 145.631915 
L 227.376761 147.058223 
L 228.027371 147.047077 
L 228.677981 145.025355 
L 229.328592 145.659235 
L 229.979202 145.533649 
L 230.629812 144.206554 
L 231.280423 145.427346 
L 231.931033 143.667498 
L 232.581643 144.249421 
L 233.232254 146.398074 
L 233.882864 144.733411 
L 234.533474 144.534049 
L 235.184085 143.984583 
L 235.834695 144.598647 
L 237.786526 145.109371 
L 239.087746 144.992859 
L 239.738357 145.0389 
L 240.388967 143.473656 
L 241.039577 146.023581 
L 241.690188 144.709135 
L 242.340798 146.422926 
L 242.991408 148.879171 
L 243.642019 148.956451 
L 244.292629 149.206057 
L 244.943239 148.482692 
L 245.59385 148.779123 
L 246.24446 149.899399 
L 246.89507 148.79055 
L 247.54568 150.941144 
L 248.196291 149.280829 
L 248.846901 150.024375 
L 249.497511 149.26069 
L 250.148122 149.445039 
L 250.798732 150.248748 
L 251.449342 147.617788 
L 252.099953 150.152496 
L 252.750563 147.399027 
L 253.401173 147.34864 
L 254.051784 145.525467 
L 254.702394 147.570051 
L 255.353004 145.954953 
L 256.003615 147.873877 
L 256.654225 147.682425 
L 257.304835 148.913507 
L 257.955445 149.051022 
L 258.606056 146.202322 
L 259.256666 145.779566 
L 259.907276 146.921806 
L 260.557887 146.486477 
L 261.208497 147.047077 
L 261.859107 148.445728 
L 262.509718 150.605787 
L 263.160328 148.380378 
L 263.810938 149.832646 
L 264.461549 147.396227 
L 265.112159 152.326899 
L 265.762769 150.260424 
L 266.413379 148.722018 
L 267.06399 143.859185 
L 267.7146 147.183737 
L 268.36521 143.428587 
L 269.015821 149.283706 
L 269.666431 140.120615 
L 270.317041 149.15434 
L 270.967652 148.6393 
L 271.618262 143.275029 
L 272.268872 149.922241 
L 272.919483 153.313178 
L 273.570093 146.351155 
L 274.220703 155.31367 
L 274.871314 155.027109 
L 275.521924 156.396212 
L 276.172534 156.245428 
L 276.823144 144.630968 
L 277.473755 154.1907 
L 278.124365 144.281587 
L 278.774975 153.644295 
L 279.425586 156.431491 
L 280.076196 155.960767 
L 280.726806 154.211083 
L 281.377417 154.629085 
L 282.028027 146.609705 
L 282.678637 153.038545 
L 283.329248 154.817597 
L 283.979858 144.793276 
L 284.630468 154.517075 
L 285.281079 147.902076 
L 285.931689 153.017234 
L 286.582299 144.219947 
L 287.232909 150.576861 
L 287.88352 142.305421 
L 288.53413 148.043483 
L 289.18474 149.085444 
L 289.835351 146.342878 
L 290.485961 148.14506 
L 291.136571 146.658071 
L 291.787182 149.734089 
L 292.437792 148.593705 
L 293.088402 149.358564 
L 293.739013 148.425832 
L 294.389623 149.277952 
L 295.040233 146.555618 
L 295.690844 139.647623 
L 296.341454 147.315069 
L 296.992064 146.400835 
L 297.642674 147.491496 
L 298.293285 145.152773 
L 298.943895 146.919025 
L 299.594505 144.391596 
L 300.245116 150.465086 
L 300.895726 148.536753 
L 301.546336 150.041831 
L 302.196947 148.014986 
L 302.847557 149.283706 
L 303.498167 150.073847 
L 304.148778 149.277952 
L 304.799388 149.94878 
L 305.449998 150.923451 
L 306.100608 149.725399 
L 306.751219 150.526607 
L 307.401829 149.989474 
L 308.052439 153.059864 
L 308.70305 151.975468 
L 309.35366 152.369077 
L 310.00427 145.541833 
L 310.654881 154.017318 
L 311.305491 143.915187 
L 311.956101 155.40843 
L 312.606712 148.502605 
L 313.257322 158.537632 
L 313.907932 147.853877 
L 314.558543 159.551591 
L 315.209153 149.605198 
L 315.859763 163.086759 
L 316.510373 147.062273 
L 317.160984 148.879171 
L 317.811594 148.077165 
L 318.462204 161.782364 
L 319.112815 148.911423 
L 319.763425 148.761987 
L 320.414035 150.920503 
L 321.064646 148.636449 
L 321.715256 150.283782 
L 322.365866 166.439451 
L 323.016477 149.406692 
L 323.667087 151.334539 
L 324.317697 167.476062 
L 324.968308 152.320175 
L 325.618918 168.063981 
L 326.269528 149.92193 
L 326.920138 170.048673 
L 327.570749 150.643804 
L 328.221359 167.108684 
L 328.871969 150.700837 
L 329.52258 170.34733 
L 330.17319 151.553775 
L 330.8238 167.460374 
L 331.474411 151.311777 
L 332.125021 160.618081 
L 332.775631 149.617433 
L 333.426242 160.150765 
L 334.076852 148.143697 
L 334.727462 158.891529 
L 335.378073 157.153046 
L 336.028683 146.612635 
L 336.679293 160.552564 
L 337.329903 160.21302 
L 337.980514 147.026904 
L 338.631124 157.872324 
L 339.281734 143.563999 
L 339.932345 157.822971 
L 340.582955 145.617711 
L 341.233565 155.951345 
L 341.884176 142.531886 
L 342.534786 157.878041 
L 343.185396 149.823944 
L 343.836007 156.483 
L 344.486617 147.676802 
L 345.137227 156.053475 
L 345.787837 148.978061 
L 346.438448 157.931601 
L 347.089058 150.409473 
L 347.739668 156.615027 
L 348.390279 146.257409 
L 349.040889 156.88318 
L 349.691499 148.622198 
L 350.34211 156.811988 
L 350.99272 156.163515 
L 351.64333 153.102125 
L 352.293941 153.057003 
L 352.944551 147.29829 
L 353.595161 155.449537 
L 354.245772 153.203185 
L 354.896382 155.887599 
L 355.546992 149.966218 
L 356.197602 157.045291 
L 356.848213 148.893261 
L 357.498823 158.119702 
L 358.149433 151.08629 
L 358.800044 157.658755 
L 359.450654 152.288328 
L 360.101264 156.586021 
L 360.751875 150.768151 
L 361.402485 157.517889 
L 362.053095 153.73718 
L 362.703706 162.132164 
L 363.354316 151.418524 
L 364.004926 159.744962 
L 364.655537 152.18652 
L 365.306147 160.680219 
L 365.956757 153.367048 
L 366.607367 159.683828 
L 367.257978 153.945916 
L 367.908588 160.704403 
L 368.559198 153.818636 
L 369.209809 158.491049 
L 369.860419 152.336105 
L 370.511029 158.364795 
L 371.16164 151.484542 
L 371.81225 160.749342 
L 372.46286 153.215069 
L 373.113471 160.856648 
L 373.764081 151.720861 
L 374.414691 156.72473 
L 375.065302 152.208777 
L 375.715912 158.904925 
L 376.366522 152.684341 
L 377.017132 158.222253 
L 377.667743 151.340017 
L 378.318353 158.437857 
L 378.968963 151.664067 
L 379.619574 153.457065 
L 380.270184 150.902084 
L 380.920794 154.218609 
L 381.571405 149.0205 
L 382.222015 156.676307 
L 382.872625 151.217731 
L 383.523236 159.102879 
L 384.173846 157.841544 
L 384.824456 153.936116 
L 386.125677 157.778942 
L 387.426897 153.360573 
L 388.077508 155.064822 
L 388.728118 151.818787 
L 389.378728 154.623122 
L 390.029339 152.921826 
L 390.679949 158.047031 
L 391.330559 151.371409 
L 391.98117 157.829549 
L 392.63178 149.141901 
L 393.28239 155.916276 
L 393.933001 151.374549 
L 394.583611 157.694844 
L 395.234221 152.415811 
L 395.884831 158.156071 
L 396.535442 151.967534 
L 397.186052 159.483894 
L 397.836662 151.198938 
L 398.487273 156.905849 
L 398.487273 156.905849 
" clip-path="url(#pc98d1d3f6b)" style="fill: none; stroke-dasharray: 9.6,2.4,1.5,2.4; stroke-dashoffset: 0; stroke: #008000; stroke-width: 1.5"/>
   </g>
   <g id="line2d_32">
    <path d="M 73.832727 111.719842 
L 74.483338 74.09218 
L 75.133948 91.195662 
L 75.784558 74.09218 
L 76.435169 60.409393 
L 77.085779 70.671483 
L 77.736389 60.409393 
L 78.386999 67.250786 
L 79.68822 60.409393 
L 80.33883 74.09218 
L 80.989441 84.354269 
L 81.640051 80.933573 
L 82.290661 67.250786 
L 82.941272 67.250786 
L 83.591882 63.83009 
L 84.242492 77.512876 
L 84.893103 80.933573 
L 85.543713 87.774966 
L 86.194323 77.512876 
L 86.844934 63.83009 
L 87.495544 53.568 
L 88.146154 60.409393 
L 88.796764 56.988697 
L 90.097985 84.354269 
L 90.748595 74.09218 
L 91.399206 70.671483 
L 92.049816 87.774966 
L 92.700426 80.933573 
L 93.351037 80.933573 
L 94.652257 67.250786 
L 95.302868 104.878449 
L 95.953478 87.774966 
L 96.604088 91.195662 
L 97.254698 87.774966 
L 97.905309 77.512876 
L 98.555919 94.616359 
L 99.206529 80.933573 
L 99.85714 84.354269 
L 100.50775 84.354269 
L 101.15836 67.250786 
L 101.808971 91.195662 
L 102.459581 94.616359 
L 103.110191 84.354269 
L 103.760802 80.933573 
L 104.411412 94.616359 
L 105.062022 87.774966 
L 105.712633 91.195662 
L 106.363243 98.037056 
L 107.013853 98.037056 
L 107.664463 94.616359 
L 108.315074 94.616359 
L 108.965684 77.512876 
L 109.616294 94.616359 
L 110.266905 87.774966 
L 110.917515 94.616359 
L 111.568125 87.774966 
L 112.218736 91.195662 
L 112.869346 101.457752 
L 113.519956 118.561235 
L 114.170567 104.878449 
L 114.821177 108.299145 
L 115.471787 91.195662 
L 116.122398 84.354269 
L 116.773008 91.195662 
L 117.423618 84.354269 
L 118.074228 98.037056 
L 118.724839 91.195662 
L 119.375449 91.195662 
L 120.026059 98.037056 
L 120.67667 84.354269 
L 121.32728 77.512876 
L 121.97789 84.354269 
L 122.628501 63.83009 
L 123.279111 80.933573 
L 123.929721 84.354269 
L 124.580332 63.83009 
L 125.230942 77.512876 
L 125.881552 63.83009 
L 126.532163 60.409393 
L 127.182773 70.671483 
L 127.833383 67.250786 
L 128.483993 67.250786 
L 129.134604 63.83009 
L 129.785214 77.512876 
L 130.435824 74.09218 
L 131.086435 107.794452 
L 131.737045 93.061497 
L 132.387655 82.775486 
L 133.038266 93.610272 
L 133.688876 86.903024 
L 134.339486 93.610272 
L 134.990097 86.903024 
L 135.640707 99.221143 
L 136.291317 99.221143 
L 136.941927 109.088537 
L 137.592538 102.510274 
L 138.243148 105.799406 
L 138.893758 105.799406 
L 139.544369 111.074427 
L 140.194979 111.074427 
L 140.845589 98.166138 
L 142.14681 98.166138 
L 143.448031 104.620283 
L 144.098641 111.074427 
L 144.749251 111.074427 
L 145.399862 114.3015 
L 146.050472 111.074427 
L 146.701082 111.074427 
L 147.351692 101.393211 
L 148.002303 104.620283 
L 148.652913 104.620283 
L 149.303523 107.847355 
L 149.954134 101.393211 
L 150.604744 104.620283 
L 151.255354 114.3015 
L 151.905965 107.847355 
L 154.508406 107.847355 
L 155.809627 114.3015 
L 156.460237 120.755644 
L 157.761457 114.3015 
L 158.412068 114.3015 
L 159.713288 120.755644 
L 160.363899 127.209789 
L 161.014509 120.755644 
L 161.665119 123.982716 
L 162.31573 130.436861 
L 163.61695 117.528572 
L 164.267561 117.528572 
L 164.918171 120.755644 
L 165.568781 120.755644 
L 166.219392 127.209789 
L 167.520612 120.755644 
L 168.171222 123.982716 
L 168.821833 120.755644 
L 169.472443 123.982716 
L 170.123053 120.755644 
L 170.773664 120.755644 
L 171.424274 101.393211 
L 172.074884 88.484922 
L 172.725495 91.711994 
L 173.376105 91.711994 
L 174.026715 94.939066 
L 174.677326 91.711994 
L 175.327936 91.711994 
L 176.629156 98.166138 
L 177.930377 91.711994 
L 178.580987 111.074427 
L 179.231598 101.393211 
L 179.882208 114.3015 
L 180.532818 107.847355 
L 182.484649 107.847355 
L 183.13526 101.393211 
L 184.43648 101.393211 
L 185.087091 88.484922 
L 185.737701 91.711994 
L 187.038921 91.711994 
L 187.689532 88.484922 
L 188.340142 91.711994 
L 188.990752 91.711994 
L 189.641363 94.939066 
L 190.291973 91.711994 
L 191.593194 91.711994 
L 192.243804 88.484922 
L 192.894414 82.030777 
L 193.545025 78.803705 
L 194.195635 85.257849 
L 194.846245 78.803705 
L 196.147466 78.803705 
L 196.798076 75.576633 
L 197.448686 78.803705 
L 198.099297 75.576633 
L 198.749907 78.803705 
L 199.400517 78.803705 
L 200.051128 85.257849 
L 200.701738 85.257849 
L 201.352348 88.484922 
L 202.002959 85.257849 
L 203.304179 91.711994 
L 205.25601 91.711994 
L 205.906621 94.939066 
L 206.557231 91.711994 
L 207.207841 94.939066 
L 207.858451 91.711994 
L 208.509062 98.166138 
L 209.159672 88.484922 
L 209.810282 91.711994 
L 210.460893 88.484922 
L 211.111503 94.939066 
L 211.762113 91.711994 
L 212.412724 91.711994 
L 213.063334 98.166138 
L 213.713944 88.484922 
L 215.015165 94.939066 
L 215.665775 94.939066 
L 216.966996 88.484922 
L 217.617606 84.480962 
L 218.268216 93.982897 
L 218.918827 91.711994 
L 219.569437 88.484922 
L 220.220047 98.166138 
L 220.870658 98.166138 
L 221.521268 101.393211 
L 222.822489 94.939066 
L 223.473099 88.484922 
L 224.123709 94.939066 
L 225.42493 88.484922 
L 228.677981 88.484922 
L 229.328592 91.711994 
L 229.979202 91.711994 
L 230.629812 88.484922 
L 231.280423 94.939066 
L 231.931033 88.484922 
L 232.581643 91.711994 
L 233.232254 88.484922 
L 233.882864 94.939066 
L 235.184085 88.484922 
L 235.834695 91.711994 
L 237.135915 85.257849 
L 238.437136 85.257849 
L 239.087746 82.030777 
L 242.991408 82.030777 
L 243.642019 85.257849 
L 244.292629 82.030777 
L 245.59385 82.030777 
L 246.24446 88.484922 
L 246.89507 82.030777 
L 247.54568 88.484922 
L 248.196291 85.257849 
L 248.846901 85.257849 
L 249.497511 88.484922 
L 250.148122 85.257849 
L 250.798732 88.484922 
L 251.449342 82.030777 
L 252.099953 82.030777 
L 252.750563 85.257849 
L 255.353004 85.257849 
L 256.003615 91.711994 
L 256.654225 85.257849 
L 257.304835 94.939066 
L 257.955445 94.939066 
L 258.606056 85.257849 
L 259.256666 85.257849 
L 261.208497 94.939066 
L 261.859107 91.711994 
L 262.509718 94.939066 
L 263.160328 91.711994 
L 263.810938 85.257849 
L 264.461549 69.122488 
L 265.112159 78.803705 
L 265.762769 75.576633 
L 266.413379 78.803705 
L 267.06399 75.576633 
L 267.7146 88.484922 
L 268.36521 82.030777 
L 269.015821 91.711994 
L 269.666431 82.030777 
L 270.317041 98.166138 
L 270.967652 91.711994 
L 271.618262 88.484922 
L 272.268872 97.150208 
L 272.919483 101.393211 
L 273.570093 98.166138 
L 274.220703 101.393211 
L 274.871314 91.711994 
L 276.172534 98.166138 
L 276.823144 104.620283 
L 277.473755 98.166138 
L 278.124365 94.939066 
L 278.774975 88.484922 
L 279.425586 92.64288 
L 281.377417 92.64288 
L 282.028027 82.775486 
L 282.678637 94.939066 
L 283.329248 95.932012 
L 283.979858 82.775486 
L 284.630468 91.711994 
L 285.281079 91.711994 
L 285.931689 94.939066 
L 286.582299 78.803705 
L 287.232909 87.648273 
L 287.88352 82.030777 
L 288.53413 84.480962 
L 289.18474 88.484922 
L 289.835351 88.484922 
L 290.485961 85.257849 
L 291.136571 88.484922 
L 292.437792 88.484922 
L 293.088402 94.939066 
L 293.739013 94.939066 
L 294.389623 98.166138 
L 295.040233 94.939066 
L 295.690844 88.484922 
L 296.341454 104.620283 
L 296.992064 98.166138 
L 297.642674 82.030777 
L 298.293285 82.030777 
L 298.943895 88.484922 
L 299.594505 85.257849 
L 300.245116 88.484922 
L 300.895726 94.939066 
L 301.546336 94.939066 
L 302.196947 98.166138 
L 303.498167 91.711994 
L 304.148778 94.939066 
L 304.799388 101.393211 
L 305.449998 98.166138 
L 306.100608 91.711994 
L 306.751219 94.939066 
L 307.401829 91.711994 
L 308.052439 94.939066 
L 308.70305 94.939066 
L 309.35366 98.166138 
L 310.00427 88.484922 
L 310.654881 91.711994 
L 311.305491 82.030777 
L 311.956101 88.484922 
L 313.257322 94.939066 
L 313.907932 92.64288 
L 314.558543 98.166138 
L 315.209153 99.221143 
L 315.859763 88.484922 
L 316.510373 92.64288 
L 317.160984 94.939066 
L 317.811594 85.257849 
L 318.462204 85.257849 
L 319.112815 89.353749 
L 319.763425 91.711994 
L 320.414035 85.257849 
L 321.064646 85.257849 
L 322.365866 91.711994 
L 323.016477 99.221143 
L 323.667087 94.939066 
L 324.317697 98.166138 
L 324.968308 102.510274 
L 325.618918 104.620283 
L 326.269528 103.671144 
L 326.920138 114.3015 
L 327.570749 102.510274 
L 328.221359 111.074427 
L 328.871969 103.671144 
L 329.52258 117.528572 
L 330.17319 105.799406 
L 330.8238 111.074427 
L 331.474411 105.799406 
L 332.125021 111.074427 
L 332.775631 109.088537 
L 333.426242 114.3015 
L 334.076852 99.221143 
L 334.727462 117.528572 
L 335.378073 112.377668 
L 336.028683 99.221143 
L 336.679293 127.209789 
L 337.329903 122.245062 
L 337.980514 109.088537 
L 338.631124 114.3015 
L 339.281734 105.799406 
L 339.932345 107.847355 
L 340.582955 95.932012 
L 341.233565 111.074427 
L 341.884176 95.932012 
L 342.534786 125.656013 
L 343.185396 101.393211 
L 343.836007 114.3015 
L 344.486617 114.3015 
L 345.137227 120.755644 
L 345.787837 105.799406 
L 346.438448 117.528572 
L 347.089058 111.074427 
L 347.739668 117.528572 
L 348.390279 111.074427 
L 349.040889 114.3015 
L 349.691499 114.3015 
L 350.34211 107.847355 
L 350.99272 102.510274 
L 351.64333 102.510274 
L 352.293941 105.799406 
L 352.944551 75.576633 
L 353.595161 101.393211 
L 354.245772 101.393211 
L 354.896382 94.939066 
L 355.546992 82.030777 
L 356.197602 94.939066 
L 356.848213 86.064618 
L 357.498823 94.939066 
L 358.149433 86.064618 
L 358.800044 94.939066 
L 359.450654 89.353749 
L 360.101264 94.939066 
L 360.751875 89.353749 
L 361.402485 94.939066 
L 362.053095 95.932012 
L 362.703706 101.393211 
L 363.354316 95.932012 
L 364.004926 94.939066 
L 364.655537 99.221143 
L 365.306147 98.166138 
L 365.956757 99.221143 
L 366.607367 91.711994 
L 367.257978 95.932012 
L 367.908588 98.166138 
L 368.559198 89.353749 
L 369.209809 98.166138 
L 369.860419 95.932012 
L 370.511029 91.711994 
L 371.16164 95.932012 
L 371.81225 98.166138 
L 372.46286 95.932012 
L 373.113471 98.166138 
L 373.764081 95.932012 
L 374.414691 94.939066 
L 375.065302 99.221143 
L 375.715912 94.939066 
L 376.366522 95.932012 
L 377.017132 91.711994 
L 377.667743 89.353749 
L 378.318353 98.166138 
L 378.968963 72.908092 
L 379.619574 94.939066 
L 380.270184 79.486355 
L 380.920794 91.711994 
L 381.571405 69.618961 
L 382.222015 101.393211 
L 382.872625 69.618961 
L 383.523236 104.620283 
L 384.173846 99.221143 
L 384.824456 92.64288 
L 385.475066 99.221143 
L 386.776287 99.221143 
L 387.426897 76.197224 
L 388.077508 98.166138 
L 388.728118 79.486355 
L 389.378728 104.620283 
L 390.029339 86.064618 
L 390.679949 91.711994 
L 391.330559 82.775486 
L 391.98117 91.711994 
L 392.63178 82.775486 
L 393.28239 98.166138 
L 393.933001 82.775486 
L 394.583611 91.711994 
L 395.234221 82.775486 
L 395.884831 94.939066 
L 396.535442 89.353749 
L 397.186052 94.939066 
L 397.836662 76.197224 
L 398.487273 98.166138 
L 398.487273 98.166138 
" clip-path="url(#pc98d1d3f6b)" style="fill: none; stroke: #ff0000; stroke-width: 1.5; stroke-linecap: square"/>
   </g>
   <g id="patch_3">
    <path d="M 57.6 307.584 
L 57.6 41.472 
" style="fill: none; stroke: #000000; stroke-width: 0.8; stroke-linejoin: miter; stroke-linecap: square"/>
   </g>
   <g id="patch_4">
    <path d="M 414.72 307.584 
L 414.72 41.472 
" style="fill: none; stroke: #000000; stroke-width: 0.8; stroke-linejoin: miter; stroke-linecap: square"/>
   </g>
   <g id="patch_5">
    <path d="M 57.6 307.584 
L 414.72 307.584 
" style="fill: none; stroke: #000000; stroke-width: 0.8; stroke-linejoin: miter; stroke-linecap: square"/>
   </g>
   <g id="patch_6">
    <path d="M 57.6 41.472 
L 414.72 41.472 
" style="fill: none; stroke: #000000; stroke-width: 0.8; stroke-linejoin: miter; stroke-linecap: square"/>
   </g>
   <g id="text_17">
    <!-- Population's average and best fitness -->
    <g transform="translate(123.529687 35.472) scale(0.12 -0.12)">
     <defs>
      <path id="DejaVuSans-50" d="M 1259 4147 
L 1259 2394 
L 2053 2394 
Q 2494 2394 2734 2622 
Q 2975 2850 2975 3272 
Q 2975 3691 2734 3919 
Q 2494 4147 2053 4147 
L 1259 4147 
z
M 628 4666 
L 2053 4666 
Q 2838 4666 3239 4311 
Q 3641 3956 3641 3272 
Q 3641 2581 3239 2228 
Q 2838 1875 2053 1875 
L 1259 1875 
L 1259 0 
L 628 0 
L 628 4666 
z
" transform="scale(0.015625)"/>
      <path id="DejaVuSans-70" d="M 1159 525 
L 1159 -1331 
L 581 -1331 
L 581 3500 
L 1159 3500 
L 1159 2969 
Q 1341 3281 1617 3432 
Q 1894 3584 2278 3584 
Q 2916 3584 3314 3078 
Q 3713 2572 3713 1747 
Q 3713 922 3314 415 
Q 2916 -91 2278 -91 
Q 1894 -91 1617 61 
Q 1341 213 1159 525 
z
M 3116 1747 
Q 3116 2381 2855 2742 
Q 2594 3103 2138 3103 
Q 1681 3103 1420 2742 
Q 1159 2381 1159 1747 
Q 1159 1113 1420 752 
Q 1681 391 2138 391 
Q 2594 391 2855 752 
Q 3116 1113 3116 1747 
z
" transform="scale(0.015625)"/>
      <path id="DejaVuSans-75" d="M 544 1381 
L 544 3500 
L 1119 3500 
L 1119 1403 
Q 1119 906 1312 657 
Q 1506 409 1894 409 
Q 2359 409 2629 706 
Q 2900 1003 2900 1516 
L 2900 3500 
L 3475 3500 
L 3475 0 
L 2900 0 
L 2900 538 
Q 2691 219 2414 64 
Q 2138 -91 1772 -91 
Q 1169 -91 856 284 
Q 544 659 544 1381 
z
M 1991 3584 
L 1991 3584 
z
" transform="scale(0.015625)"/>
      <path id="DejaVuSans-6c" d="M 603 4863 
L 1178 4863 
L 1178 0 
L 603 0 
L 603 4863 
z
" transform="scale(0.015625)"/>
      <path id="DejaVuSans-27" d="M 1147 4666 
L 1147 2931 
L 616 2931 
L 616 4666 
L 1147 4666 
z
" transform="scale(0.015625)"/>
      <path id="DejaVuSans-20" transform="scale(0.015625)"/>
      <path id="DejaVuSans-76" d="M 191 3500 
L 800 3500 
L 1894 563 
L 2988 3500 
L 3597 3500 
L 2284 0 
L 1503 0 
L 191 3500 
z
" transform="scale(0.015625)"/>
      <path id="DejaVuSans-67" d="M 2906 1791 
Q 2906 2416 2648 2759 
Q 2391 3103 1925 3103 
Q 1463 3103 1205 2759 
Q 947 2416 947 1791 
Q 947 1169 1205 825 
Q 1463 481 1925 481 
Q 2391 481 2648 825 
Q 2906 1169 2906 1791 
z
M 3481 434 
Q 3481 -459 3084 -895 
Q 2688 -1331 1869 -1331 
Q 1566 -1331 1297 -1286 
Q 1028 -1241 775 -1147 
L 775 -588 
Q 1028 -725 1275 -790 
Q 1522 -856 1778 -856 
Q 2344 -856 2625 -561 
Q 2906 -266 2906 331 
L 2906 616 
Q 2728 306 2450 153 
Q 2172 0 1784 0 
Q 1141 0 747 490 
Q 353 981 353 1791 
Q 353 2603 747 3093 
Q 1141 3584 1784 3584 
Q 2172 3584 2450 3431 
Q 2728 3278 2906 2969 
L 2906 3500 
L 3481 3500 
L 3481 434 
z
" transform="scale(0.015625)"/>
      <path id="DejaVuSans-64" d="M 2906 2969 
L 2906 4863 
L 3481 4863 
L 3481 0 
L 2906 0 
L 2906 525 
Q 2725 213 2448 61 
Q 2172 -91 1784 -91 
Q 1150 -91 751 415 
Q 353 922 353 1747 
Q 353 2572 751 3078 
Q 1150 3584 1784 3584 
Q 2172 3584 2448 3432 
Q 2725 3281 2906 2969 
z
M 947 1747 
Q 947 1113 1208 752 
Q 1469 391 1925 391 
Q 2381 391 2643 752 
Q 2906 1113 2906 1747 
Q 2906 2381 2643 2742 
Q 2381 3103 1925 3103 
Q 1469 3103 1208 2742 
Q 947 2381 947 1747 
z
" transform="scale(0.015625)"/>
      <path id="DejaVuSans-62" d="M 3116 1747 
Q 3116 2381 2855 2742 
Q 2594 3103 2138 3103 
Q 1681 3103 1420 2742 
Q 1159 2381 1159 1747 
Q 1159 1113 1420 752 
Q 1681 391 2138 391 
Q 2594 391 2855 752 
Q 3116 1113 3116 1747 
z
M 1159 2969 
Q 1341 3281 1617 3432 
Q 1894 3584 2278 3584 
Q 2916 3584 3314 3078 
Q 3713 2572 3713 1747 
Q 3713 922 3314 415 
Q 2916 -91 2278 -91 
Q 1894 -91 1617 61 
Q 1341 213 1159 525 
L 1159 0 
L 581 0 
L 581 4863 
L 1159 4863 
L 1159 2969 
z
" transform="scale(0.015625)"/>
      <path id="DejaVuSans-66" d="M 2375 4863 
L 2375 4384 
L 1825 4384 
Q 1516 4384 1395 4259 
Q 1275 4134 1275 3809 
L 1275 3500 
L 2222 3500 
L 2222 3053 
L 1275 3053 
L 1275 0 
L 697 0 
L 697 3053 
L 147 3053 
L 147 3500 
L 697 3500 
L 697 3744 
Q 697 4328 969 4595 
Q 1241 4863 1831 4863 
L 2375 4863 
z
" transform="scale(0.015625)"/>
     </defs>
     <use xlink:href="#DejaVuSans-50"/>
     <use xlink:href="#DejaVuSans-6f" x="56.677734"/>
     <use xlink:href="#DejaVuSans-70" x="117.859375"/>
     <use xlink:href="#DejaVuSans-75" x="181.335938"/>
     <use xlink:href="#DejaVuSans-6c" x="244.714844"/>
     <use xlink:href="#DejaVuSans-61" x="272.498047"/>
     <use xlink:href="#DejaVuSans-74" x="333.777344"/>
     <use xlink:href="#DejaVuSans-69" x="372.986328"/>
     <use xlink:href="#DejaVuSans-6f" x="400.769531"/>
     <use xlink:href="#DejaVuSans-6e" x="461.951172"/>
     <use xlink:href="#DejaVuSans-27" x="525.330078"/>
     <use xlink:href="#DejaVuSans-73" x="552.820312"/>
     <use xlink:href="#DejaVuSans-20" x="604.919922"/>
     <use xlink:href="#DejaVuSans-61" x="636.707031"/>
     <use xlink:href="#DejaVuSans-76" x="697.986328"/>
     <use xlink:href="#DejaVuSans-65" x="757.166016"/>
     <use xlink:href="#DejaVuSans-72" x="818.689453"/>
     <use xlink:href="#DejaVuSans-61" x="859.802734"/>
     <use xlink:href="#DejaVuSans-67" x="921.082031"/>
     <use xlink:href="#DejaVuSans-65" x="984.558594"/>
     <use xlink:href="#DejaVuSans-20" x="1046.082031"/>
     <use xlink:href="#DejaVuSans-61" x="1077.869141"/>
     <use xlink:href="#DejaVuSans-6e" x="1139.148438"/>
     <use xlink:href="#DejaVuSans-64" x="1202.527344"/>
     <use xlink:href="#DejaVuSans-20" x="1266.003906"/>
     <use xlink:href="#DejaVuSans-62" x="1297.791016"/>
     <use xlink:href="#DejaVuSans-65" x="1361.267578"/>
     <use xlink:href="#DejaVuSans-73" x="1422.791016"/>
     <use xlink:href="#DejaVuSans-74" x="1474.890625"/>
     <use xlink:href="#DejaVuSans-20" x="1514.099609"/>
     <use xlink:href="#DejaVuSans-66" x="1545.886719"/>
     <use xlink:href="#DejaVuSans-69" x="1581.091797"/>
     <use xlink:href="#DejaVuSans-74" x="1608.875"/>
     <use xlink:href="#DejaVuSans-6e" x="1648.083984"/>
     <use xlink:href="#DejaVuSans-65" x="1711.462891"/>
     <use xlink:href="#DejaVuSans-73" x="1772.986328"/>
     <use xlink:href="#DejaVuSans-73" x="1825.085938"/>
    </g>
   </g>
   <g id="legend_1">
    <g id="patch_7">
     <path d="M 334.779375 108.1845 
L 407.72 108.1845 
Q 409.72 108.1845 409.72 106.1845 
L 409.72 48.472 
Q 409.72 46.472 407.72 46.472 
L 334.779375 46.472 
Q 332.779375 46.472 332.779375 48.472 
L 332.779375 106.1845 
Q 332.779375 108.1845 334.779375 108.1845 
z
" style="fill: #ffffff; opacity: 0.8; stroke: #cccccc; stroke-linejoin: miter"/>
    </g>
    <g id="line2d_33">
     <path d="M 336.779375 54.570438 
L 346.779375 54.570438 
L 356.779375 54.570438 
" style="fill: none; stroke: #0000ff; stroke-width: 1.5; stroke-linecap: square"/>
    </g>
    <g id="text_18">
     <!-- average -->
     <g transform="translate(364.779375 58.070438) scale(0.1 -0.1)">
      <use xlink:href="#DejaVuSans-61"/>
      <use xlink:href="#DejaVuSans-76" x="61.279297"/>
      <use xlink:href="#DejaVuSans-65" x="120.458984"/>
      <use xlink:href="#DejaVuSans-72" x="181.982422"/>
      <use xlink:href="#DejaVuSans-61" x="223.095703"/>
      <use xlink:href="#DejaVuSans-67" x="284.375"/>
      <use xlink:href="#DejaVuSans-65" x="347.851562"/>
     </g>
    </g>
    <g id="line2d_34">
     <path d="M 336.779375 69.248563 
L 346.779375 69.248563 
L 356.779375 69.248563 
" style="fill: none; stroke-dasharray: 9.6,2.4,1.5,2.4; stroke-dashoffset: 0; stroke: #008000; stroke-width: 1.5"/>
    </g>
    <g id="text_19">
     <!-- -1 sd -->
     <g transform="translate(364.779375 72.748563) scale(0.1 -0.1)">
      <defs>
       <path id="DejaVuSans-2d" d="M 313 2009 
L 1997 2009 
L 1997 1497 
L 313 1497 
L 313 2009 
z
" transform="scale(0.015625)"/>
      </defs>
      <use xlink:href="#DejaVuSans-2d"/>
      <use xlink:href="#DejaVuSans-31" x="36.083984"/>
      <use xlink:href="#DejaVuSans-20" x="99.707031"/>
      <use xlink:href="#DejaVuSans-73" x="131.494141"/>
      <use xlink:href="#DejaVuSans-64" x="183.59375"/>
     </g>
    </g>
    <g id="line2d_35">
     <path d="M 336.779375 83.926688 
L 346.779375 83.926688 
L 356.779375 83.926688 
" style="fill: none; stroke-dasharray: 9.6,2.4,1.5,2.4; stroke-dashoffset: 0; stroke: #008000; stroke-width: 1.5"/>
    </g>
    <g id="text_20">
     <!-- +1 sd -->
     <g transform="translate(364.779375 87.426688) scale(0.1 -0.1)">
      <defs>
       <path id="DejaVuSans-2b" d="M 2944 4013 
L 2944 2272 
L 4684 2272 
L 4684 1741 
L 2944 1741 
L 2944 0 
L 2419 0 
L 2419 1741 
L 678 1741 
L 678 2272 
L 2419 2272 
L 2419 4013 
L 2944 4013 
z
" transform="scale(0.015625)"/>
      </defs>
      <use xlink:href="#DejaVuSans-2b"/>
      <use xlink:href="#DejaVuSans-31" x="83.789062"/>
      <use xlink:href="#DejaVuSans-20" x="147.412109"/>
      <use xlink:href="#DejaVuSans-73" x="179.199219"/>
      <use xlink:href="#DejaVuSans-64" x="231.298828"/>
     </g>
    </g>
    <g id="line2d_36">
     <path d="M 336.779375 98.604813 
L 346.779375 98.604813 
L 356.779375 98.604813 
" style="fill: none; stroke: #ff0000; stroke-width: 1.5; stroke-linecap: square"/>
    </g>
    <g id="text_21">
     <!-- best -->
     <g transform="translate(364.779375 102.104813) scale(0.1 -0.1)">
      <use xlink:href="#DejaVuSans-62"/>
      <use xlink:href="#DejaVuSans-65" x="63.476562"/>
      <use xlink:href="#DejaVuSans-73" x="125"/>
      <use xlink:href="#DejaVuSans-74" x="177.099609"/>
     </g>
    </g>
   </g>
  </g>
 </g>
 <defs>
  <clipPath id="pc98d1d3f6b">
   <rect x="57.6" y="41.472" width="357.12" height="266.112"/>
  </clipPath>
 </defs>
</svg>
