<?xml version="1.0" encoding="UTF-8" standalone="no"?>
<!DOCTYPE svg PUBLIC "-//W3C//DTD SVG 1.1//EN"
 "http://www.w3.org/Graphics/SVG/1.1/DTD/svg11.dtd">
<!-- Generated by graphviz version 8.1.0 (20230707.0739)
 -->
<!-- Pages: 1 -->
<svg width="298pt" height="170pt"
 viewBox="0.00 0.00 297.50 169.96" xmlns="http://www.w3.org/2000/svg" xmlns:xlink="http://www.w3.org/1999/xlink">
<g id="graph0" class="graph" transform="scale(1 1) rotate(0) translate(4 165.96)">
<polygon fill="white" stroke="none" points="-4,4 -4,-165.96 293.5,-165.96 293.5,4 -4,4"/>
<!-- &#45;1 -->
<g id="node1" class="node">
<title>&#45;1</title>
<polygon fill="lightgray" stroke="black" points="23.5,-95.48 0,-95.48 0,-76.23 23.5,-76.23 23.5,-95.48"/>
<text text-anchor="middle" x="11.75" y="-82.93" font-family="Times New Roman,serif" font-size="9.00">&#45;1</text>
</g>
<!-- 0 -->
<g id="node10" class="node">
<title>0</title>
<ellipse fill="lightblue" stroke="black" cx="151.75" cy="-14.5" rx="14.5" ry="14.5"/>
<text text-anchor="middle" x="151.75" y="-11.57" font-family="Times New Roman,serif" font-size="9.00">0</text>
</g>
<!-- &#45;1&#45;&gt;0 -->
<g id="edge1" class="edge">
<title>&#45;1&#45;&gt;0</title>
<path fill="none" stroke="green" stroke-width="0.13" d="M22.47,-75.73C27.01,-72.12 32.46,-68.1 37.75,-64.99 67.87,-47.31 105.48,-32.2 129.06,-23.48"/>
<polygon fill="green" stroke="green" stroke-width="0.13" points="130.04,-26.84 138.25,-20.14 127.66,-20.26 130.04,-26.84"/>
</g>
<!-- &#45;2 -->
<g id="node2" class="node">
<title>&#45;2</title>
<polygon fill="lightgray" stroke="black" points="87.5,-161.96 64,-161.96 64,-142.71 87.5,-142.71 87.5,-161.96"/>
<text text-anchor="middle" x="75.75" y="-149.41" font-family="Times New Roman,serif" font-size="9.00">&#45;2</text>
</g>
<!-- &#45;2&#45;&gt;0 -->
<g id="edge2" class="edge">
<title>&#45;2&#45;&gt;0</title>
<path fill="none" stroke="red" stroke-width="0.76" stroke-dasharray="1,5" d="M72.23,-142.3C66.41,-125.76 56.72,-90.01 70.75,-64.99 82.8,-43.5 108.4,-30.23 127.61,-22.91"/>
<polygon fill="red" stroke="red" stroke-width="0.76" points="128.49,-25.96 136.77,-19.35 126.18,-19.36 128.49,-25.96"/>
</g>
<!-- 407 -->
<g id="node11" class="node">
<title>407</title>
<ellipse fill="white" stroke="black" cx="100.75" cy="-85.85" rx="20.86" ry="20.86"/>
<text text-anchor="middle" x="100.75" y="-82.93" font-family="Times New Roman,serif" font-size="9.00">407</text>
</g>
<!-- &#45;2&#45;&gt;407 -->
<g id="edge7" class="edge">
<title>&#45;2&#45;&gt;407</title>
<path fill="none" stroke="green" stroke-width="0.56" d="M79.23,-142.37C81.99,-135.24 86.02,-124.85 89.84,-114.98"/>
<polygon fill="green" stroke="green" stroke-width="0.56" points="93.05,-116.4 93.4,-105.81 86.52,-113.86 93.05,-116.4"/>
</g>
<!-- &#45;3 -->
<g id="node3" class="node">
<title>&#45;3</title>
<polygon fill="lightgray" stroke="black" points="163.5,-95.48 140,-95.48 140,-76.23 163.5,-76.23 163.5,-95.48"/>
<text text-anchor="middle" x="151.75" y="-82.93" font-family="Times New Roman,serif" font-size="9.00">&#45;3</text>
</g>
<!-- &#45;3&#45;&gt;0 -->
<g id="edge3" class="edge">
<title>&#45;3&#45;&gt;0</title>
<path fill="none" stroke="green" stroke-width="0.66" d="M151.75,-75.78C151.75,-66.55 151.75,-51.83 151.75,-39.25"/>
<polygon fill="green" stroke="green" stroke-width="0.66" points="155.25,-39.36 151.75,-29.36 148.25,-39.36 155.25,-39.36"/>
</g>
<!-- &#45;4 -->
<g id="node4" class="node">
<title>&#45;4</title>
<polygon fill="lightgray" stroke="black" points="205.5,-95.48 182,-95.48 182,-76.23 205.5,-76.23 205.5,-95.48"/>
<text text-anchor="middle" x="193.75" y="-82.93" font-family="Times New Roman,serif" font-size="9.00">&#45;4</text>
</g>
<!-- &#45;4&#45;&gt;0 -->
<g id="edge4" class="edge">
<title>&#45;4&#45;&gt;0</title>
<path fill="none" stroke="red" stroke-width="0.1" d="M188.26,-75.78C182.12,-65.64 171.97,-48.89 163.94,-35.62"/>
<polygon fill="red" stroke="red" stroke-width="0.1" points="166.96,-33.85 158.78,-27.11 160.97,-37.48 166.96,-33.85"/>
</g>
<!-- &#45;5 -->
<g id="node5" class="node">
<title>&#45;5</title>
<polygon fill="lightgray" stroke="black" points="129.5,-161.96 106,-161.96 106,-142.71 129.5,-142.71 129.5,-161.96"/>
<text text-anchor="middle" x="117.75" y="-149.41" font-family="Times New Roman,serif" font-size="9.00">&#45;5</text>
</g>
<!-- &#45;6 -->
<g id="node6" class="node">
<title>&#45;6</title>
<polygon fill="lightgray" stroke="black" points="171.5,-161.96 148,-161.96 148,-142.71 171.5,-142.71 171.5,-161.96"/>
<text text-anchor="middle" x="159.75" y="-149.41" font-family="Times New Roman,serif" font-size="9.00">&#45;6</text>
</g>
<!-- &#45;7 -->
<g id="node7" class="node">
<title>&#45;7</title>
<polygon fill="lightgray" stroke="black" points="247.5,-95.48 224,-95.48 224,-76.23 247.5,-76.23 247.5,-95.48"/>
<text text-anchor="middle" x="235.75" y="-82.93" font-family="Times New Roman,serif" font-size="9.00">&#45;7</text>
</g>
<!-- &#45;7&#45;&gt;0 -->
<g id="edge5" class="edge">
<title>&#45;7&#45;&gt;0</title>
<path fill="none" stroke="green" stroke-width="0.29" stroke-dasharray="1,5" d="M226.51,-75.77C222.91,-72.32 218.7,-68.4 214.75,-64.99 200.41,-52.62 183.5,-39.41 170.81,-29.75"/>
<polygon fill="green" stroke="green" stroke-width="0.29" points="173.24,-27.19 163.15,-23.96 169.02,-32.78 173.24,-27.19"/>
</g>
<!-- &#45;8 -->
<g id="node8" class="node">
<title>&#45;8</title>
<polygon fill="lightgray" stroke="black" points="213.5,-161.96 190,-161.96 190,-142.71 213.5,-142.71 213.5,-161.96"/>
<text text-anchor="middle" x="201.75" y="-149.41" font-family="Times New Roman,serif" font-size="9.00">&#45;8</text>
</g>
<!-- &#45;9 -->
<g id="node9" class="node">
<title>&#45;9</title>
<polygon fill="lightgray" stroke="black" points="289.5,-95.48 266,-95.48 266,-76.23 289.5,-76.23 289.5,-95.48"/>
<text text-anchor="middle" x="277.75" y="-82.93" font-family="Times New Roman,serif" font-size="9.00">&#45;9</text>
</g>
<!-- &#45;9&#45;&gt;0 -->
<g id="edge6" class="edge">
<title>&#45;9&#45;&gt;0</title>
<path fill="none" stroke="green" stroke-width="0.11" d="M269.7,-76.08C265.99,-72.36 261.39,-68.16 256.75,-64.99 230.48,-47.06 196.69,-32.42 174.64,-23.84"/>
<polygon fill="green" stroke="green" stroke-width="0.11" points="176,-20.61 165.4,-20.33 173.51,-27.15 176,-20.61"/>
</g>
<!-- 407&#45;&gt;0 -->
<g id="edge8" class="edge">
<title>407&#45;&gt;0</title>
<path fill="none" stroke="red" stroke-width="0.2" d="M112.84,-68.41C120.27,-58.3 129.84,-45.29 137.63,-34.7"/>
<polygon fill="red" stroke="red" stroke-width="0.2" points="140.31,-36.96 143.41,-26.83 134.67,-32.81 140.31,-36.96"/>
</g>
</g>
</svg>
